Coordinates
version=1
nRows=21
nColumns=12
inDegrees=yes

Units are S.I. units (second, meters, Newtons, ...)
Angles are in degrees

endheader
time	SC_y	SC_z	SC_x	AC_y	AC_z	AC_x	GH_y	GH_z	GH_yy	EL_x	PS_y
       0.0              -11.23          23.36          43.36          41.05         -15.91          15.44         -66.38          19.67          116.5          22.96          45.64
  0.001231              -11.24          23.35          43.36          41.05         -15.91          15.44          -66.4          19.67          116.5          22.98          45.65
  0.002463              -11.24          23.35          43.36          41.05         -15.91          15.43         -66.41          19.67          116.4          22.99          45.66
  0.003694              -11.25          23.35          43.37          41.05         -15.91          15.43         -66.43          19.67          116.4          23.01          45.67
  0.004925              -11.26          23.35          43.37          41.05         -15.91          15.42         -66.45          19.67          116.4          23.03          45.67
  0.006157              -11.26          23.35          43.37          41.05         -15.91          15.41         -66.47          19.67          116.3          23.05          45.68
  0.007388              -11.27          23.35          43.37          41.05         -15.91          15.41          -66.5          19.67          116.3          23.07          45.69
   0.00862              -11.28          23.34          43.37          41.05         -15.91           15.4         -66.52          19.67          116.2           23.1          45.71
  0.009851              -11.29          23.34          43.37          41.05         -15.91          15.39         -66.55          19.67          116.2          23.12          45.72
   0.01108               -11.3          23.34          43.37          41.05         -15.91          15.38         -66.57          19.67          116.2          23.15          45.73
   0.01231               -11.3          23.34          43.38          41.05         -15.91          15.37          -66.6          19.67          116.1          23.18          45.74
   0.01355              -11.31          23.33          43.38          41.05         -15.91          15.36         -66.63          19.67          116.0          23.21          45.76
   0.01478              -11.33          23.33          43.38          41.05         -15.91          15.35         -66.67          19.68          116.0          23.24          45.77
   0.01601              -11.34          23.33          43.38          41.05         -15.91          15.34         -66.71          19.68          115.9          23.28          45.79
   0.01724              -11.35          23.32          43.38          41.05         -15.91          15.33         -66.75          19.68          115.9          23.32          45.81
   0.01847              -11.36          23.32          43.39          41.05         -15.91          15.32         -66.79          19.68          115.8          23.36          45.83
    0.0197              -11.38          23.32          43.39          41.05         -15.92           15.3         -66.84          19.68          115.7           23.4          45.85
   0.02093               -11.4          23.31          43.39          41.05         -15.92          15.29         -66.89          19.68          115.6          23.46          45.87
   0.02216              -11.41          23.31           43.4          41.05         -15.92          15.27         -66.95          19.68          115.5          23.51           45.9
    0.0234              -11.43           23.3           43.4          41.05         -15.92          15.25         -67.01          19.68          115.4          23.57          45.93
   0.02463              -11.46          23.29           43.4          41.05         -15.92          15.23         -67.07          19.68          115.3          23.64          45.96
